<?xml version="1.0" ?><svg enable-background="new 0 0 64 64" version="1.1" viewBox="0 0 64 64" xml:space="preserve" xmlns="http://www.w3.org/2000/svg" xmlns:xlink="http://www.w3.org/1999/xlink"><g id="Filled"><g><g><g><g><polygon fill="#EAEAEA" points="61.382,32 1.074,57.78 1.074,6.22      "/><path d="M0.074,59.295V4.705L63.926,32L0.074,59.295z M2.074,7.734v48.531L58.838,32L2.074,7.734z"/></g></g></g><g><g><path d="M27.355,34.687c-0.19,0-0.327,0.053-0.411,0.166c-0.083,0.106-0.123,0.289-0.123,0.542v0.61h1.056v-0.61      c0-0.253-0.042-0.436-0.127-0.542C27.672,34.74,27.537,34.687,27.355,34.687z"/></g><g><path d="M23.238,34.666c-0.086,0-0.17,0.018-0.253,0.058c-0.083,0.039-0.165,0.101-0.246,0.184v3.765      c0.097,0.097,0.192,0.171,0.284,0.213c0.092,0.043,0.187,0.065,0.288,0.065c0.146,0,0.253-0.042,0.322-0.129      c0.068-0.084,0.105-0.221,0.105-0.416v-3.12c0-0.204-0.042-0.359-0.127-0.464C23.523,34.717,23.398,34.666,23.238,34.666z"/></g><g><path d="M29.874,29.982c-0.981-0.975-9.247-0.988-9.247-0.987c0-0.001-8.264,0.012-9.248,0.986      c-0.983,0.977-0.986,5.796-0.986,5.824c0,0.037,0.002,4.847,0.986,5.824c0.983,0.974,9.248,0.995,9.248,0.995      s8.266-0.021,9.247-0.995c0.987-0.979,0.996-5.824,0.996-5.824C30.87,35.777,30.859,30.958,29.874,29.982z M16.697,32.822      h-1.392v7.001h-1.347v-7.001h-1.392v-1.19h4.13V32.822z M20.631,39.821h-1.192v-0.664c-0.222,0.246-0.45,0.433-0.69,0.56      c-0.239,0.13-0.469,0.192-0.694,0.192c-0.277,0-0.482-0.088-0.625-0.27c-0.138-0.181-0.209-0.448-0.209-0.809v-5.052h1.193      v4.635c0,0.144,0.025,0.246,0.073,0.311c0.053,0.065,0.134,0.096,0.245,0.096c0.088,0,0.2-0.042,0.334-0.128      c0.135-0.085,0.257-0.193,0.371-0.323v-4.591h1.193V39.821z M24.965,38.574c0,0.427-0.094,0.755-0.281,0.984      c-0.185,0.229-0.458,0.341-0.812,0.341c-0.235,0-0.442-0.042-0.624-0.131c-0.183-0.088-0.355-0.223-0.51-0.409v0.464H21.53      v-8.19h1.207v2.638c0.162-0.184,0.332-0.325,0.512-0.42c0.183-0.097,0.365-0.144,0.551-0.144c0.379,0,0.667,0.129,0.866,0.385      c0.201,0.258,0.3,0.635,0.3,1.13V38.574z M29.106,36.947h-2.284v1.136c0,0.319,0.039,0.539,0.116,0.663      c0.081,0.123,0.214,0.183,0.405,0.183c0.198,0,0.336-0.052,0.415-0.156c0.078-0.104,0.12-0.333,0.12-0.69v-0.276h1.228v0.31      c0,0.62-0.148,1.086-0.45,1.402c-0.298,0.312-0.745,0.468-1.34,0.468c-0.534,0-0.957-0.165-1.264-0.498      c-0.307-0.331-0.463-0.788-0.463-1.371v-2.713c0-0.523,0.17-0.952,0.508-1.281c0.337-0.33,0.772-0.495,1.308-0.495      c0.547,0,0.967,0.153,1.261,0.459c0.294,0.305,0.439,0.744,0.439,1.317V36.947z"/></g></g><g><path d="M27.351,27.759h-1.345v-0.735c-0.245,0.27-0.504,0.479-0.773,0.619c-0.268,0.142-0.528,0.212-0.78,0.212     c-0.313,0-0.545-0.099-0.703-0.297c-0.157-0.198-0.236-0.495-0.236-0.892v-5.563h1.342v5.103c0,0.157,0.031,0.272,0.087,0.342     c0.055,0.071,0.148,0.106,0.273,0.106c0.098,0,0.224-0.047,0.375-0.14c0.151-0.093,0.289-0.212,0.414-0.359v-5.052h1.345     L27.351,27.759L27.351,27.759z"/></g><g><path d="M21.891,21.418c-0.356-0.323-0.814-0.484-1.369-0.484c-0.61,0-1.098,0.153-1.459,0.459     c-0.363,0.305-0.544,0.715-0.543,1.232v3.45c0,0.566,0.177,1.016,0.528,1.351c0.354,0.334,0.825,0.501,1.412,0.501     c0.612,0,1.09-0.162,1.441-0.486c0.347-0.325,0.521-0.771,0.521-1.34v-3.438C22.423,22.155,22.245,21.74,21.891,21.418z      M21.053,26.201c0,0.177-0.053,0.317-0.161,0.421c-0.108,0.101-0.252,0.152-0.434,0.152c-0.179,0-0.315-0.049-0.411-0.149     c-0.095-0.101-0.144-0.242-0.144-0.423v-3.626c0-0.146,0.053-0.263,0.154-0.353c0.103-0.089,0.236-0.133,0.401-0.133     c0.177,0,0.32,0.044,0.43,0.133c0.11,0.09,0.165,0.208,0.165,0.353V26.201z"/></g><g><polygon points="14.858,18.736 13.332,18.736 15.135,24.184 15.135,27.759 16.649,27.759 16.649,24.015 18.41,18.736      16.871,18.736 15.936,22.343 15.841,22.343    "/></g></g></g></svg>